<svg width="280" height="71" viewBox="0 0 280 71" fill="none" xmlns="http://www.w3.org/2000/svg">
  <path d="M89.5051 55.8458L92.991 47.7954C96.7581 50.5907 101.762 52.0442 106.71 52.0442C110.365 52.0442 112.67 50.6466 112.67 48.5222C112.614 42.5962 90.7983 47.2363 90.6296 32.3655C90.5734 24.8182 97.3204 19.004 106.879 19.004C112.557 19.004 118.236 20.4017 122.284 23.5883L119.023 31.8064C115.312 29.4584 110.702 27.7812 106.316 27.7812C103.336 27.7812 101.369 29.1788 101.369 30.9678C101.425 36.782 123.409 33.5954 123.634 47.7954C123.634 55.5103 117.055 60.9332 107.61 60.9332C100.694 60.9332 94.3404 59.3119 89.5051 55.8458ZM223.264 44.8883C221.521 47.9072 218.26 49.9757 214.493 49.9757C208.927 49.9757 204.429 45.5033 204.429 39.9686C204.429 34.434 208.927 29.9615 214.493 29.9615C218.26 29.9615 221.521 32.03 223.264 35.0489L232.879 29.7379C229.28 23.3647 222.365 19.004 214.493 19.004C202.854 19.004 193.409 28.3962 193.409 39.9686C193.409 51.541 202.854 60.9332 214.493 60.9332C222.421 60.9332 229.28 56.6285 232.879 50.1993L223.264 44.8883ZM128.469 1.61743H140.501V60.1505H128.469V1.61743ZM237.601 1.61743V60.1505H249.634V42.5962L263.915 60.1505H279.32L261.16 39.2977L277.971 19.8426H263.24L249.634 35.9993V1.61743H237.601ZM176.26 45.0001C174.517 47.8513 170.919 49.9757 166.871 49.9757C161.304 49.9757 156.806 45.5033 156.806 39.9686C156.806 34.434 161.304 29.9615 166.871 29.9615C170.919 29.9615 174.517 32.1977 176.26 35.1048V45.0001ZM176.26 19.8426V24.5946C174.292 21.2962 169.401 19.004 164.284 19.004C153.714 19.004 145.393 28.2844 145.393 39.9127C145.393 51.541 153.714 60.9332 164.284 60.9332C169.401 60.9332 174.292 58.641 176.26 55.3426V60.0946H188.292V19.8426H176.26Z" fill="black" />
  <path d="M15.1199 44.944C15.1199 49.0251 11.8026 52.3235 7.69821 52.3235C3.59379 52.3235 0.27652 49.0251 0.27652 44.944C0.27652 40.8629 3.59379 37.5645 7.69821 37.5645H15.1199V44.944ZM18.8307 44.944C18.8307 40.8629 22.148 37.5645 26.2524 37.5645C30.3568 37.5645 33.6741 40.8629 33.6741 44.944V63.3928C33.6741 67.4739 30.3568 70.7723 26.2524 70.7723C22.148 70.7723 18.8307 67.4739 18.8307 63.3928V44.944Z" fill="#E01E5A" />
  <path d="M26.2521 15.3142C22.1477 15.3142 18.8304 12.0158 18.8304 7.9347C18.8304 3.8536 22.1477 0.555176 26.2521 0.555176C30.3565 0.555176 33.6738 3.8536 33.6738 7.9347V15.3142H26.2521ZM26.2521 19.0599C30.3565 19.0599 33.6738 22.3583 33.6738 26.4394C33.6738 30.5205 30.3565 33.819 26.2521 33.819H7.64166C3.53724 33.819 0.219971 30.5205 0.219971 26.4394C0.219971 22.3583 3.53724 19.0599 7.64166 19.0599H26.2521Z" fill="#36C5F0" />
  <path d="M55.9951 26.4394C55.9951 22.3583 59.3124 19.0599 63.4168 19.0599C67.5212 19.0599 70.8385 22.3583 70.8385 26.4394C70.8385 30.5205 67.5212 33.819 63.4168 33.819H55.9951V26.4394ZM52.2843 26.4394C52.2843 30.5205 48.967 33.819 44.8626 33.819C40.7582 33.819 37.4409 30.5205 37.4409 26.4394V7.9347C37.4409 3.8536 40.7582 0.555176 44.8626 0.555176C48.967 0.555176 52.2843 3.8536 52.2843 7.9347V26.4394Z" fill="#2EB67D" />
  <path d="M44.8626 56.0133C48.967 56.0133 52.2843 59.3117 52.2843 63.3928C52.2843 67.4739 48.967 70.7723 44.8626 70.7723C40.7582 70.7723 37.4409 67.4739 37.4409 63.3928V56.0133H44.8626ZM44.8626 52.3235C40.7582 52.3235 37.4409 49.0251 37.4409 44.944C37.4409 40.8629 40.7582 37.5645 44.8626 37.5645H63.473C67.5774 37.5645 70.8947 40.8629 70.8947 44.944C70.8947 49.0251 67.5774 52.3235 63.473 52.3235H44.8626Z" fill="#ECB22E" />
</svg>